<svg fill="none" height="24" viewBox="0 0 24 24" width="24" xmlns="http://www.w3.org/2000/svg"><path d="m6.23694 3.0004c.9665 0 1.75.7835 1.75 1.75v14.5c0 .9665-.7835 1.75-1.75 1.75h-2.5c-.9665 0-1.75-.7835-1.75-1.75v-14.5c0-.91817.70711-1.67119 1.60647-1.7442l.14353-.0058zm14.02606 0c.9665 0 1.75.7835 1.75 1.75v14.5c0 .9665-.7835 1.75-1.75 1.75h-2.5c-.9665 0-1.75-.7835-1.75-1.75v-14.5c0-.9665.7835-1.75 1.75-1.75zm-7.0261-.00083c.9665 0 1.75.7835 1.75 1.75v14.50003c0 .9665-.7835 1.75-1.75 1.75h-2.5c-.96646 0-1.74996-.7835-1.74996-1.75v-14.50003c0-.9665.7835-1.75 1.74996-1.75zm-6.99996 1.50083h-2.5l-.05732.00661c-.11045.02591-.19268.12505-.19268.24339v14.5c0 .1381.11193.25.25.25h2.5c.13807 0 .25-.1119.25-.25v-14.5c0-.13807-.11193-.25-.25-.25zm14.02606 0h-2.5c-.1381 0-.25.11193-.25.25v14.5c0 .1381.1119.25.25.25h2.5c.1381 0 .25-.1119.25-.25v-14.5c0-.13807-.1119-.25-.25-.25zm-7.0261-.00083h-2.5c-.138 0-.25.11193-.25.25v14.50003c0 .138.112.25.25.25h2.5c.1381 0 .25-.112.25-.25v-14.50003c0-.13807-.1119-.25-.25-.25z" fill="#212121"/></svg>